<svg preserveAspectRatio="none" overflow="visible" style="display: block;" width="45.5315" height="51.6092" viewBox="0 0 45.5315 51.6092" fill="none" xmlns="http://www.w3.org/2000/svg">
<g id="chart-bar-33">
<path id="Path" opacity="0.4" d="M27.185 28.8404H19.6857C19.1682 28.8404 18.7483 29.3504 18.7483 29.9789V50.4707C18.7483 51.0991 19.1682 51.6092 19.6857 51.6092H27.185C27.7025 51.6092 28.1224 51.0991 28.1224 50.4707V29.9789C28.1224 29.3504 27.7025 28.8404 27.185 28.8404Z" fill="#473BF0"/>
<path id="Path_2" opacity="0.3" d="M8.43673 40.9837H0.937414C0.419961 40.9837 0 41.4598 0 42.0463V50.5466C0 51.1331 0.419961 51.6092 0.937414 51.6092H8.43673C8.95418 51.6092 9.37414 51.1331 9.37414 50.5466V42.0463C9.37414 41.4598 8.95418 40.9837 8.43673 40.9837Z" fill="#473BF0"/>
<path id="Path_3" opacity="0.7" d="M44.5941 18.215H37.0948C36.5774 18.215 36.1574 18.7137 36.1574 19.3281V50.496C36.1574 51.1105 36.5774 51.6092 37.0948 51.6092H44.5941C45.1116 51.6092 45.5315 51.1105 45.5315 50.496V19.3281C45.5315 18.7137 45.1116 18.215 44.5941 18.215Z" fill="#473BF0"/>
<path id="Path_4" d="M23.3002 17.5041L35.5101 3.80461V11.1441C35.5101 11.7593 35.9551 12.2585 36.5033 12.2585C37.0516 12.2585 37.4966 11.7593 37.4966 11.1441V1.11441C37.4966 0.499257 37.0516 0 36.5033 0H27.5642C27.0159 0 26.5709 0.499257 26.5709 1.11441C26.5709 1.72957 27.0159 2.22883 27.5642 2.22883H34.1056L22.598 15.1404L15.3543 7.013C14.966 6.57727 14.3382 6.57727 13.9499 7.013L4.01749 18.1571L5.42193 19.7329L14.6521 9.37667L21.8958 17.5041C22.2841 17.9398 22.9119 17.9398 23.3002 17.5041Z" fill="#473BF0"/>
</g>
</svg>
